<?xml version="1.0" encoding="UTF-8" standalone="no"?>
<!-- Created with Inkscape (http://www.inkscape.org/) -->

<svg
   width="6.182723mm"
   height="5.506773mm"
   viewBox="0 0 6.182723 5.506773"
   version="1.1"
   id="svg1"
   inkscape:export-filename="house.png"
   inkscape:export-xdpi="230.62509"
   inkscape:export-ydpi="230.62509"
   inkscape:version="1.3.2 (091e20ef0f, 2023-11-25)"
   sodipodi:docname="house.svg"
   xmlns:inkscape="http://www.inkscape.org/namespaces/inkscape"
   xmlns:sodipodi="http://sodipodi.sourceforge.net/DTD/sodipodi-0.dtd"
   xmlns="http://www.w3.org/2000/svg"
   xmlns:svg="http://www.w3.org/2000/svg">
  <sodipodi:namedview
     id="namedview1"
     pagecolor="#ffffff"
     bordercolor="#666666"
     borderopacity="1.0"
     inkscape:showpageshadow="2"
     inkscape:pageopacity="0.0"
     inkscape:pagecheckerboard="0"
     inkscape:deskcolor="#d1d1d1"
     inkscape:document-units="mm"
     inkscape:zoom="19.02887"
     inkscape:cx="12.297104"
     inkscape:cy="12.481035"
     inkscape:window-width="1898"
     inkscape:window-height="1216"
     inkscape:window-x="0"
     inkscape:window-y="0"
     inkscape:window-maximized="1"
     inkscape:current-layer="layer1" />
  <defs
     id="defs1" />
  <g
     inkscape:label="Layer 1"
     inkscape:groupmode="layer"
     id="layer1"
     transform="translate(-115.09047,-136.94675)">
    <g
       id="SVGRepo_bgCarrier"
       stroke-width="0"
       transform="matrix(0.26458333,0,0,0.26458333,115.09375,135.46667)" />
    <g
       id="SVGRepo_tracerCarrier"
       stroke-linecap="round"
       stroke-linejoin="round"
       transform="matrix(0.26458333,0,0,0.26458333,115.09375,135.46667)" />
    <g
       id="SVGRepo_iconCarrier"
       transform="matrix(0.26458333,0,0,0.26458333,115.09375,135.46667)">
      <title
         id="title1">home</title>
      <path
         d="m 19.469,12.594 3.625,3.313 c 0.438,0.406 0.313,0.719 -0.281,0.719 h -2.719 v 8.656 c 0,0.594 -0.5,1.125 -1.094,1.125 h -4.719 v -6.063 c 0,-0.594 -0.531,-1.125 -1.125,-1.125 h -2.969 c -0.594,0 -1.125,0.531 -1.125,1.125 v 6.063 H 4.343 c -0.594,0 -1.125,-0.531 -1.125,-1.125 V 16.626 H 0.53 c -0.594,0 -0.719,-0.313 -0.281,-0.719 L 10.843,6.282 c 0.438,-0.406 1.188,-0.406 1.656,0 l 2.406,2.156 V 6.719 c 0,-0.594 0.531,-1.125 1.125,-1.125 h 2.344 c 0.594,0 1.094,0.531 1.094,1.125 v 5.875 z"
         id="path1" />
    </g>
  </g>
</svg>
