<?xml version="1.0" encoding="UTF-8" standalone="no"?>
<!-- Created with Inkscape (http://www.inkscape.org/) -->

<svg
   width="100.85123mm"
   height="126.32134mm"
   viewBox="0 0 100.85123 126.32134"
   version="1.1"
   id="svg1"
   inkscape:export-filename="minutes.png"
   inkscape:export-xdpi="10.053724"
   inkscape:export-ydpi="10.053724"
   inkscape:version="1.3.2 (091e20ef0f, 2023-11-25)"
   sodipodi:docname="minutes.svg"
   xmlns:inkscape="http://www.inkscape.org/namespaces/inkscape"
   xmlns:sodipodi="http://sodipodi.sourceforge.net/DTD/sodipodi-0.dtd"
   xmlns="http://www.w3.org/2000/svg"
   xmlns:svg="http://www.w3.org/2000/svg">
  <sodipodi:namedview
     id="namedview1"
     pagecolor="#ffffff"
     bordercolor="#666666"
     borderopacity="1.0"
     inkscape:showpageshadow="2"
     inkscape:pageopacity="0.0"
     inkscape:pagecheckerboard="0"
     inkscape:deskcolor="#d1d1d1"
     inkscape:document-units="mm"
     inkscape:zoom="0.2102413"
     inkscape:cx="156.9625"
     inkscape:cy="221.17443"
     inkscape:window-width="1898"
     inkscape:window-height="1216"
     inkscape:window-x="0"
     inkscape:window-y="0"
     inkscape:window-maximized="1"
     inkscape:current-layer="layer1" />
  <defs
     id="defs1" />
  <g
     inkscape:label="Layer 1"
     inkscape:groupmode="layer"
     id="layer1"
     transform="translate(-62.741175,-89.164583)">
    <g
       id="SVGRepo_bgCarrier"
       stroke-width="0"
       transform="matrix(0.26458333,0,0,0.26458333,50.00625,89.164583)" />
    <g
       id="SVGRepo_tracerCarrier"
       stroke-linecap="round"
       stroke-linejoin="round"
       transform="matrix(0.26458333,0,0,0.26458333,50.00625,89.164583)" />
    <g
       id="SVGRepo_iconCarrier"
       transform="matrix(0.26458333,0,0,0.26458333,50.00625,89.164583)"> <g
   id="g3"> <g
   id="Layer_2_24_"> <g
   id="g2"> <path
   d="m 370.619,149.412 20.863,-29.464 c 3.786,-5.351 2.522,-12.751 -2.823,-16.538 L 357.194,81.129 c -5.346,-3.78 -12.754,-2.515 -16.541,2.828 L 319.27,114.155 C 303.487,106.76 286.541,101.462 268.783,98.641 V 86.363 c 0,-7.862 6.435,-14.296 14.297,-14.296 h 7.886 c 7.866,0 14.3,-6.433 14.3,-14.288 V 14.299 C 305.266,6.441 298.832,0 290.966,0 h -104.5 c -7.858,0 -14.294,6.441 -14.294,14.299 v 43.479 c 0,7.855 6.436,14.288 14.294,14.288 h 7.895 c 7.859,0 14.295,6.434 14.295,14.296 V 98.64 c -19.043,3.028 -37.139,8.891 -53.87,17.127 L 133.6,85.86 c -3.784,-5.35 -11.187,-6.608 -16.535,-2.828 l -31.461,22.282 c -5.351,3.788 -6.615,11.188 -2.825,16.542 l 21.361,30.169 c -34.581,34.513 -56.008,82.215 -56.008,134.827 0,105.084 85.499,190.583 190.586,190.583 105.09,0 190.584,-85.499 190.584,-190.583 0,-53.956 -22.535,-102.735 -58.683,-137.44 z M 238.718,431.698 c -79.866,0 -144.845,-64.983 -144.845,-144.847 0,-79.869 64.979,-144.848 144.845,-144.848 79.867,0 144.848,64.979 144.848,144.848 0,79.864 -64.981,144.847 -144.848,144.847 z"
   id="path1" />
 <path
   d="m 238.718,167.411 c -0.322,0 -0.635,0.029 -0.951,0.029 V 285.895 H 358.125 C 357.615,220.476 304.254,167.411 238.718,167.411 Z"
   id="path2" />
 </g>
 </g>
 </g>
 </g>
  </g>
</svg>
